<svg id="Layer_1" data-name="Layer 1" xmlns="http://www.w3.org/2000/svg" xmlns:xlink="http://www.w3.org/1999/xlink" viewBox="0 0 371 82"> <defs> <style> .cls-1 { fill: #01d3b9; } .cls-10, .cls-11, .cls-12, .cls-13, .cls-14, .cls-15, .cls-16, .cls-17, .cls-18, .cls-19, .cls-2, .cls-20, .cls-21, .cls-22, .cls-23, .cls-24, .cls-25, .cls-27, .cls-28, .cls-29, .cls-3, .cls-30, .cls-31, .cls-32, .cls-33, .cls-34, .cls-36, .cls-37, .cls-38, .cls-39, .cls-4, .cls-40, .cls-41, .cls-42, .cls-43, .cls-44, .cls-45, .cls-47, .cls-5, .cls-6, .cls-7, .cls-8, .cls-9 { fill-rule: evenodd; } .cls-2 { fill: url(#GradientFill_1); } .cls-3 { fill: url(#GradientFill_1-2); } .cls-4 { fill: #371800; } .cls-5 { fill: #ffd56e; } .cls-6 { fill: url(#GradientFill_2); } .cls-7 { fill: url(#GradientFill_3); } .cls-8 { fill: url(#GradientFill_4); } .cls-9 { fill: #ffe189; } .cls-10 { fill: #c9a04a; } .cls-11 { fill: #ffeeb7; } .cls-12 { fill: #b66100; } .cls-13 { fill: url(#GradientFill_5); } .cls-14 { fill: url(#GradientFill_3-2); } .cls-15 { fill: url(#GradientFill_3-3); } .cls-16 { fill: url(#GradientFill_6); } .cls-17 { fill: url(#GradientFill_6-2); } .cls-18 { fill: url(#GradientFill_7); } .cls-19 { fill: url(#GradientFill_7-2); } .cls-20 { fill: url(#GradientFill_7-3); } .cls-21 { fill: url(#GradientFill_7-4); } .cls-22 { fill: url(#GradientFill_7-5); } .cls-23 { fill: url(#GradientFill_7-6); } .cls-24 { fill: url(#GradientFill_7-7); } .cls-25 { fill: url(#GradientFill_7-8); } .cls-26 { opacity: 0.6; } .cls-27 { fill: url(#GradientFill_8); } .cls-28 { fill: url(#GradientFill_9); } .cls-29 { fill: url(#GradientFill_10); } .cls-30 { fill: url(#GradientFill_9-2); } .cls-31 { fill: url(#GradientFill_11); } .cls-32 { fill: url(#GradientFill_12); } .cls-33 { fill: url(#GradientFill_1-3); } .cls-34 { fill: url(#GradientFill_8-2); } .cls-35 { opacity: 0.51; } .cls-36 { fill: url(#GradientFill_13); } .cls-37 { fill: url(#GradientFill_13-2); } .cls-38 { fill: url(#GradientFill_14); } .cls-39 { fill: url(#GradientFill_15); } .cls-40 { fill: url(#GradientFill_16); } .cls-41 { fill: url(#GradientFill_17); } .cls-42 { fill: url(#GradientFill_14-2); } .cls-43 { fill: url(#GradientFill_15-2); } .cls-44 { fill: url(#GradientFill_16-2); } .cls-45 { fill: url(#GradientFill_17-2); } .cls-46, .cls-47 { fill: #8060eb; } </style> <linearGradient id="GradientFill_1" x1="37.66" y1="46.94" x2="30.77" y2="46.6" gradientUnits="userSpaceOnUse"> <stop offset="0" stop-color="#d4881b"></stop> <stop offset="1" stop-color="#ffd571"></stop> </linearGradient> <linearGradient id="GradientFill_1-2" x1="59.49" y1="47.19" x2="66.27" y2="47.55" xlink:href="#GradientFill_1"></linearGradient> <linearGradient id="GradientFill_2" x1="48.92" y1="57.67" x2="49.94" y2="29.46" gradientUnits="userSpaceOnUse"> <stop offset="0" stop-color="#efa526"></stop> <stop offset="0.29" stop-color="#ffcd69"></stop> <stop offset="0.79" stop-color="#ffd571"></stop> <stop offset="1" stop-color="#f1aa2b"></stop> </linearGradient> <linearGradient id="GradientFill_3" x1="47.14" y1="69.9" x2="49.2" y2="60.12" gradientUnits="userSpaceOnUse"> <stop offset="0" stop-color="#2c0000"></stop> <stop offset="1" stop-color="#7a2704"></stop> </linearGradient> <linearGradient id="GradientFill_4" x1="48.56" y1="73" x2="48.86" y2="57.05" gradientUnits="userSpaceOnUse"> <stop offset="0" stop-color="#2c0000"></stop> <stop offset="1" stop-color="#d34d20"></stop> </linearGradient> <radialGradient id="GradientFill_5" cx="50.53" cy="60.1" r="69.59" gradientUnits="userSpaceOnUse"> <stop offset="0" stop-color="#ffc216"></stop> <stop offset="0.85" stop-color="#ffc216"></stop> <stop offset="1" stop-color="#d8801d"></stop> </radialGradient> <linearGradient id="GradientFill_3-2" x1="68.69" y1="50.02" x2="76.26" y2="53.39" xlink:href="#GradientFill_3"></linearGradient> <linearGradient id="GradientFill_3-3" x1="26.41" y1="52.07" x2="24.51" y2="49.45" xlink:href="#GradientFill_3"></linearGradient> <linearGradient id="GradientFill_6" x1="24.7" y1="37.62" x2="11.97" y2="12.27" gradientUnits="userSpaceOnUse"> <stop offset="0" stop-color="#00b4ab"></stop> <stop offset="0.83" stop-color="#49bfa8"></stop> <stop offset="1" stop-color="#49bfa8"></stop> </linearGradient> <linearGradient id="GradientFill_6-2" x1="73.06" y1="31.53" x2="93.54" y2="15.68" xlink:href="#GradientFill_6"></linearGradient> <linearGradient id="GradientFill_7" x1="29.95" y1="42.07" x2="30.78" y2="32.92" gradientUnits="userSpaceOnUse"> <stop offset="0" stop-color="#1a0000"></stop> <stop offset="1" stop-color="#5c0e00"></stop> </linearGradient> <linearGradient id="GradientFill_7-2" x1="19.14" y1="33.89" x2="22.63" y2="29.03" xlink:href="#GradientFill_7"></linearGradient> <linearGradient id="GradientFill_7-3" x1="10.02" y1="26.67" x2="16.2" y2="21.92" xlink:href="#GradientFill_7"></linearGradient> <linearGradient id="GradientFill_7-4" x1="15.87" y1="17.02" x2="15.51" y2="10.45" xlink:href="#GradientFill_7"></linearGradient> <linearGradient id="GradientFill_7-5" x1="68.42" y1="43.36" x2="68.24" y2="35.31" xlink:href="#GradientFill_7"></linearGradient> <linearGradient id="GradientFill_7-6" x1="81.58" y1="38.99" x2="80.22" y2="31.95" xlink:href="#GradientFill_7"></linearGradient> <linearGradient id="GradientFill_7-7" x1="84.63" y1="17.75" x2="83.76" y2="7.87" xlink:href="#GradientFill_7"></linearGradient> <linearGradient id="GradientFill_7-8" x1="88.18" y1="28.85" x2="84.28" y2="25.49" xlink:href="#GradientFill_7"></linearGradient> <linearGradient id="GradientFill_8" x1="69.43" y1="34.84" x2="87.84" y2="8.69" gradientUnits="userSpaceOnUse"> <stop offset="0" stop-color="#00b4ab"></stop> <stop offset="0.15" stop-color="#49bfa8"></stop> <stop offset="0.86" stop-color="#49bfa8"></stop> <stop offset="1" stop-color="#1cbbb4"></stop> </linearGradient> <linearGradient id="GradientFill_9" x1="21.22" y1="49.57" x2="32.69" y2="47.92" gradientUnits="userSpaceOnUse"> <stop offset="0" stop-color="#1a0000"></stop> <stop offset="0.66" stop-color="#1a0000"></stop> <stop offset="1" stop-color="#5c0e00"></stop> </linearGradient> <linearGradient id="GradientFill_10" x1="14" y1="48.99" x2="31.57" y2="46.46" gradientUnits="userSpaceOnUse"> <stop offset="0" stop-color="#ee932a"></stop> <stop offset="0.68" stop-color="#ee932a"></stop> <stop offset="1" stop-color="#7a2704"></stop> </linearGradient> <linearGradient id="GradientFill_9-2" x1="70.46" y1="50.32" x2="79.47" y2="54.09" xlink:href="#GradientFill_9"></linearGradient> <linearGradient id="GradientFill_11" x1="79.14" y1="50.34" x2="63.9" y2="49.38" gradientUnits="userSpaceOnUse"> <stop offset="0" stop-color="#ee932a"></stop> <stop offset="1" stop-color="#7a2704"></stop> </linearGradient> <linearGradient id="GradientFill_12" x1="74.86" y1="145.35" x2="74.5" y2="144.28" gradientUnits="userSpaceOnUse"> <stop offset="0" stop-color="#1a0000"></stop> <stop offset="0.51" stop-color="#922a10"></stop> <stop offset="1" stop-color="#922a10"></stop> </linearGradient> <linearGradient id="GradientFill_1-3" x1="51.73" y1="19.41" x2="48.76" y2="39.57" xlink:href="#GradientFill_1"></linearGradient> <linearGradient id="GradientFill_8-2" x1="29.41" y1="33.02" x2="13.4" y2="5.55" xlink:href="#GradientFill_8"></linearGradient> <linearGradient id="GradientFill_13" x1="31.11" y1="41.29" x2="13.06" y2="33.38" gradientUnits="userSpaceOnUse"> <stop offset="0" stop-color="#49bfaa"></stop> <stop offset="1" stop-color="#00aba5"></stop> </linearGradient> <linearGradient id="GradientFill_13-2" x1="67.01" y1="42.84" x2="85.75" y2="36.49" xlink:href="#GradientFill_13"></linearGradient> <linearGradient id="GradientFill_14" x1="37.89" y1="45.18" x2="39.23" y2="42.95" gradientUnits="userSpaceOnUse"> <stop offset="0" stop-color="#1a0000"></stop> <stop offset="1" stop-color="#4e0000"></stop> </linearGradient> <linearGradient id="GradientFill_15" x1="37.78" y1="44.72" x2="39.4" y2="43.33" gradientUnits="userSpaceOnUse"> <stop offset="0" stop-color="#fffce1"></stop> <stop offset="0.56" stop-color="#fffce1"></stop> <stop offset="1" stop-color="#a49169"></stop> </linearGradient> <radialGradient id="GradientFill_16" cx="36.84" cy="45.92" r="33.51" gradientUnits="userSpaceOnUse"> <stop offset="0" stop-color="#f8963a"></stop> <stop offset="0.72" stop-color="#f8963a"></stop> <stop offset="1" stop-color="#b66918"></stop> </radialGradient> <radialGradient id="GradientFill_17" cx="41.44" cy="42.01" r="28.33" gradientUnits="userSpaceOnUse"> <stop offset="0"></stop> <stop offset="0.56"></stop> <stop offset="0.99" stop-color="#b36517"></stop> <stop offset="1" stop-color="#b36517"></stop> </radialGradient> <linearGradient id="GradientFill_14-2" x1="60.57" y1="45.91" x2="59.24" y2="43.74" xlink:href="#GradientFill_14"></linearGradient> <linearGradient id="GradientFill_15-2" x1="60.62" y1="45.34" x2="59.01" y2="44.03" xlink:href="#GradientFill_15"></linearGradient> <radialGradient id="GradientFill_16-2" cx="61.7" cy="46.51" r="34.67" xlink:href="#GradientFill_16"></radialGradient> <radialGradient id="GradientFill_17-2" cx="56.92" cy="42.85" r="29.68" xlink:href="#GradientFill_17"></radialGradient> </defs> <circle class="cls-1" cx="50.16" cy="43.71" r="38.26" transform="translate(-11.42 68.89) rotate(-63.31)"></circle> <path class="cls-2" d="M32.76,26.66a2.41,2.41,0,0,0-.8.42,4.87,4.87,0,0,0-.85,1.05,21.43,21.43,0,0,0-.44,2.48,20.69,20.69,0,0,0,.74,10.49q1.86,5,.62,12.27a4.85,4.85,0,0,0,.83,2.46,61.77,61.77,0,0,1,2.61,5.72q1.08,2.56,2.32,5.46a16.38,16.38,0,0,0,1-4.86,35.75,35.75,0,0,1-.52-4.31,4.38,4.38,0,0,1,0-.71c0-.35.11-.53.23-.54h0a2.66,2.66,0,0,0,.54-.45C40,55.25,44,51.38,44.17,46A11.25,11.25,0,0,0,43,40.16a7.25,7.25,0,0,0-6.21-4.23c.09-1.53.14-5.18-1.65-7.58C34.82,27.92,33.73,26.46,32.76,26.66Z"></path> <path class="cls-3" d="M66.76,27.56c-1.15-.07-2,1.38-2.43,2.09a6.23,6.23,0,0,0-.66,1.57,27.14,27.14,0,0,0-.87,5.21c-1.38,0-5.33,0-7.64,2.62-3.23,3.66-2.46,11.42,3.71,17.34.11,0,.2,0,.26.23A4.52,4.52,0,0,1,59,58.08c-.13.76-.38,2.1-.77,4a16.52,16.52,0,0,0,.8,5.12,42.79,42.79,0,0,1,4.77-8.88c1.36-1.9,2-3,2-3.43q-.85-7.43.81-11.46l2.29-12q0-.89-.12-1.62C68.48,28.54,67.64,27.61,66.76,27.56Z"></path> <path class="cls-4" d="M38.55,56.59h0l.14,0Z"></path> <path class="cls-5" d="M49.46,59.06c-1.64.19-3.67-.63-6.07-2.46a3.68,3.68,0,0,0-4.3-.46,2.66,2.66,0,0,1-.54.45l.13,0-.14,0,.5.12h0c.92.27,1.63.49,2.12.65q2.4.78,8,3.21l9.74-4.17q-1.3-1.94-4.13.23A10.91,10.91,0,0,1,49.46,59.06Z"></path> <path class="cls-6" d="M32.86,25.58a1.41,1.41,0,0,0-.93.61,5.86,5.86,0,0,0-.82,1.94Q34.42,23,36.35,36q13.56,3.19,2.74,20.15a3.68,3.68,0,0,1,4.3.46c2.4,1.83,4.43,2.65,6.07,2.46a10.91,10.91,0,0,0,5.28-2.44q2.82-2.16,4.13-.23Q49.15,38,62.8,36.43q3.18-13.33,6-6.63c0-.4-.11-.76-.17-1.1-.41-2-1.19-2.75-2.33-2.3l-7.38,2.86q-4.08.34-8.33.3c-.41,0-.83,0-1.25,0h-.23a82.76,82.76,0,0,1-8.3-.65l-7.17-3.17a1.6,1.6,0,0,0-.64-.15Z"></path> <path class="cls-4" d="M39,56.7h0l-.5-.12c-.12,0-.2.19-.23.54a4.28,4.28,0,0,0,0,.7,35.61,35.61,0,0,0,.52,4.32,16.38,16.38,0,0,1-1,4.86c-.09.25-.18.52-.27.8s0,.58.37,1.16a8.18,8.18,0,0,1,.77,2c.05.33.34.55.85.67a7.18,7.18,0,0,1,2.41,1,6.56,6.56,0,0,1,1.76,2.2,1.75,1.75,0,0,0,1.34.76,16.63,16.63,0,0,0,2.65.25l.89,0a18.19,18.19,0,0,0,2.65-.28,2,2,0,0,0,1.4-.76,7.15,7.15,0,0,1,1.9-2.21,7.34,7.34,0,0,1,2.49-1c.5-.14.8-.37.88-.69a8.09,8.09,0,0,1,.9-2c.35-.57.49-1,.43-1.15s-.09-.37-.14-.54a16.52,16.52,0,0,1-.8-5.12c.39-1.89.64-3.23.77-4a4.23,4.23,0,0,0,.09-1.46c-.06-.2-.15-.28-.26-.23l-9.74,4.17q-5.62-2.43-8-3.21C40.61,57.19,39.91,57,39,56.7Z"></path> <path class="cls-7" d="M57.11,57.72l-6.64,3.53a2.47,2.47,0,0,1-2.43.12,45.88,45.88,0,0,0-7.45-3.49,3.54,3.54,0,0,0-1.25-.19c-.27,0-.42.17-.44.38a16,16,0,0,0,.53,4.33,6.63,6.63,0,0,1-.78,4.53c-.51.81-.3,2,.63,3.53.07.33.74.57,2,.72a6,6,0,0,1,2.87,2.91,1.86,1.86,0,0,0,1.66,1q5.66.87,6.57-1.63c.44-1.35,1.83-2.23,4.17-2.61q2.45-.51,1.12-6.06a18.65,18.65,0,0,1,.71-5.88c.23-1,.11-1.54-.35-1.54A2,2,0,0,0,57.11,57.72Z"></path> <path class="cls-8" d="M57.77,57.7a6.41,6.41,0,0,0-3.13,2,11.22,11.22,0,0,1-3.76,2.62q-2.18.93-5.59-1.62C43,59,41.25,58.11,40,58a.75.75,0,0,0-.55.69A42.6,42.6,0,0,0,41,68.39c1.11,3.1,4.22,4.44,9.36,4q6.2-.56,6.41-6.86a26,26,0,0,1,1-5.47c.56-1.58.6-2.38.12-2.38Z"></path> <path class="cls-9" d="M44.19,62.08s0,0,0,0l0-.06a0,0,0,0,0,0,0,7.49,7.49,0,0,0-1.27-1.47,14.91,14.91,0,0,0-2.77-1.86,4.25,4.25,0,0,0,2.82,3.25,4.8,4.8,0,0,0,1.24.2h0Z"></path> <path class="cls-10" d="M44,61.56a1,1,0,0,1-.09-.13A5.16,5.16,0,0,0,42.74,60a6.06,6.06,0,0,0-2-1.28c-.35-.13-.57-.14-.67,0a14.91,14.91,0,0,1,2.77,1.86A7.49,7.49,0,0,1,44.13,62a0,0,0,0,1,0,0l0,.06s0,0,0,0,0,0,0-.12a.14.14,0,0,1,0-.06s0,0,0,0a.17.17,0,0,1,0-.05s0-.08,0-.12A.61.61,0,0,1,44,61.56Z"></path> <path class="cls-4" d="M40.91,61.06a12.85,12.85,0,0,1-.82-1.83,1.13,1.13,0,0,1-.08-.35,4.39,4.39,0,0,0,.14,1.06,9.14,9.14,0,0,0,.62,2,2.12,2.12,0,0,0,1.72,1,3.71,3.71,0,0,0,1.74,0c.26-.12.32-.33.18-.61s-.24-.43-.27-.47a.14.14,0,0,0,0,.06c.05.15.06.18,0,.12h0v0c-.11.34-.53.42-1.25.24A2.93,2.93,0,0,1,40.91,61.06Z"></path> <path class="cls-11" d="M40.09,59.23a12.85,12.85,0,0,0,.82,1.83,2.93,2.93,0,0,0,2,1.31c.72.18,1.14.1,1.25-.24v0h0a4.8,4.8,0,0,1-1.24-.2,4.25,4.25,0,0,1-2.82-3.24h0a.34.34,0,0,0-.06.22A1.13,1.13,0,0,0,40.09,59.23Z"></path> <path class="cls-9" d="M53.55,62.3a.05.05,0,0,0,0,0l0-.06,0,0a6.89,6.89,0,0,1,1.23-1.5,14.46,14.46,0,0,1,2.72-1.92,4.28,4.28,0,0,1-2.74,3.32,5.11,5.11,0,0,1-1.24.22h0Z"></path> <path class="cls-10" d="M53.73,61.77s.05-.09.08-.14A5.36,5.36,0,0,1,55,60.15a6.25,6.25,0,0,1,2-1.33c.33-.13.56-.15.66-.06a14.46,14.46,0,0,0-2.72,1.92,6.89,6.89,0,0,0-1.23,1.5l0,0,0,.06a.05.05,0,0,1,0,0q0,.09,0-.12a.39.39,0,0,0,0-.06s0,0,0-.06,0,0,0-.05a.56.56,0,0,1,0-.12A.61.61,0,0,0,53.73,61.77Z"></path> <path class="cls-4" d="M56.81,61.2a14.6,14.6,0,0,0,.78-1.85.83.83,0,0,0,.06-.35,3.63,3.63,0,0,1-.11,1.06A9,9,0,0,1,57,62a2.09,2.09,0,0,1-1.69,1.09,3.88,3.88,0,0,1-1.75.09.41.41,0,0,1-.19-.61,3.33,3.33,0,0,1,.26-.47.39.39,0,0,1,0,.06q-.06.21,0,.12h0v.05c.12.33.53.4,1.25.21A3,3,0,0,0,56.81,61.2Z"></path> <path class="cls-11" d="M57.59,59.35a14.6,14.6,0,0,1-.78,1.85,3,3,0,0,1-2,1.36c-.72.2-1.13.12-1.25-.21V62.3h0a5.11,5.11,0,0,0,1.24-.22,4.28,4.28,0,0,0,2.74-3.32h0v0a.25.25,0,0,1,.06.22A.83.83,0,0,1,57.59,59.35Z"></path> <path class="cls-12" d="M54.36,62.18c.26-.92.62-1.31,1.09-1.16a5.23,5.23,0,0,0-.59-.83,5,5,0,0,0-.73,1.3,3.49,3.49,0,0,1,.23.69ZM44,61.61a4.79,4.79,0,0,0-.81-1.18,3.75,3.75,0,0,0-.47.75c.58-.17,1,.1,1.15.81A2.43,2.43,0,0,1,44,61.61Z"></path> <path class="cls-13" d="M54.36,62.18a4.26,4.26,0,0,1,.06.5v0A3.25,3.25,0,0,1,53,65.37a6.37,6.37,0,0,1-3.72,1.19,6.45,6.45,0,0,1-3.84-1,3.2,3.2,0,0,1-1.64-2.67s0,0,0-.06,0-.21,0-.31a2,2,0,0,1,.09-.48c-.16-.63-.48-.91-1-.85a.84.84,0,0,0-.2,0,3.22,3.22,0,0,0-.24.61,2.13,2.13,0,0,0-.1.4,3.74,3.74,0,0,0-.09.89,4.62,4.62,0,0,0,2.13,3.82,7.72,7.72,0,0,0,5,1.46,7.63,7.63,0,0,0,4.76-1.66A4.53,4.53,0,0,0,56,63a3.59,3.59,0,0,0-.12-.93A3.82,3.82,0,0,0,55.45,61a.63.63,0,0,0-.19,0C54.88,61,54.58,61.39,54.36,62.18Z"></path> <path class="cls-14" d="M68.8,45.77h0c-.88,0-1.82,0-2.82.11a12.41,12.41,0,0,0,1.27,9.54c.29-.12.64-.28,1-.48s.56-.75.48-1.62c.13.1,1.59.72,4.36,1.85s5.71,1,9.19-.13c.3-.1.3-.43,0-1a20.52,20.52,0,0,0-6.75-7A14.14,14.14,0,0,0,68.8,45.77Z"></path> <path class="cls-15" d="M25.31,44.24a8.79,8.79,0,0,0-2.8.78,21.8,21.8,0,0,0-7.27,6.63c-.2.29-.17.52.1.7q5.52,3.91,12.94-.31a4.42,4.42,0,0,1,1-.41c-.09.77.05,1.24.42,1.43l.86.46a11.92,11.92,0,0,0,1.66-9.1l-.34,0-.29,0c-.37-.05-.72-.09-1-.11l-.72-.07c-.74-.05-1.44-.08-2.1-.08A17.54,17.54,0,0,0,25.31,44.24Z"></path> <path class="cls-16" d="M14.36,8.15A39.46,39.46,0,0,0,8.57,17.9c-.19.5-.34.94-.46,1.32s-.29,1-.39,1.57a18.15,18.15,0,0,0,.15,7.54,22.23,22.23,0,0,0,2.22,5.93,17.28,17.28,0,0,0,1.62,2.39c.22.28.45.55.68.81a21.77,21.77,0,0,0,7.15,5.1l.61.27a20.75,20.75,0,0,0,5.72,1.48c.4,0,.81.09,1.24.12a40.27,40.27,0,0,0,5.07,0c2.06-5.75,2.42-10,.89-15l-3.4-.61a15.19,15.19,0,0,1-5.15-2.08A8.6,8.6,0,0,1,23,25.42a6.52,6.52,0,0,1-1.18-2,7.1,7.1,0,0,1-.44-2.34,9.52,9.52,0,0,1,.15-2c.07-.35.23-1,.48-1.9q1.69-6.16,0-10.57A11.37,11.37,0,0,0,14.79,0Q18,3.37,14.36,8.15Z"></path> <path class="cls-17" d="M79.1,9Q77,13.24,78.23,19.52c.18.94.28,1.58.32,1.94a9.55,9.55,0,0,1,0,2,7.17,7.17,0,0,1-.63,2.31,6,6,0,0,1-1.34,1.84A7.87,7.87,0,0,1,75,28.79a14.78,14.78,0,0,1-5.3,1.66l-3.43.35c-1.59,4.06-1.58,7.82-1,12.33A17.1,17.1,0,0,1,66,45.87a41.44,41.44,0,0,0,5.06.37c.42,0,.84,0,1.24,0a20.33,20.33,0,0,0,5.82-1l.64-.22a22.1,22.1,0,0,0,7.44-4.4l.09-.1c.26-.25.51-.51.75-.77a16.81,16.81,0,0,0,1.79-2.23,22.13,22.13,0,0,0,2.69-5.76,18.11,18.11,0,0,0,.76-7.49,14.44,14.44,0,0,0-.27-1.6c-.08-.38-.2-.83-.34-1.36a39.94,39.94,0,0,0-5-10.18q-3.24-5,.22-8.11A11.39,11.39,0,0,0,79.1,9Z"></path> <path class="cls-18" d="M27.11,44.43a40.27,40.27,0,0,0,5.07,0q3.52-8,.89-15l-3.4-.61Q25.11,36.73,27.11,44.43Z"></path> <path class="cls-19" d="M12.39,37.46a21.77,21.77,0,0,0,7.15,5.1q-2.64-9.27,5-15.83A8.6,8.6,0,0,1,23,25.42Q13.52,27.9,12.39,37.46Z"></path> <path class="cls-20" d="M14.8,18.72h0a10.2,10.2,0,0,0-1.45.1,16,16,0,0,0-5.61,2,18.15,18.15,0,0,0,.15,7.54,22.23,22.23,0,0,0,2.22,5.93q1-5.22,4.23-7.76a14.43,14.43,0,0,1,7.54-3,7.1,7.1,0,0,1-.44-2.34A10.43,10.43,0,0,0,14.8,18.72Z"></path> <path class="cls-21" d="M14.36,8.15A39.46,39.46,0,0,0,8.57,17.9q7.11-3.69,13,1.22c.07-.35.23-1,.48-1.9q1.69-6.16,0-10.57A11.37,11.37,0,0,0,14.79,0Q18,3.37,14.36,8.15Z"></path> <path class="cls-22" d="M66.28,30.8a18.48,18.48,0,0,0-1.12,12.35A25,25,0,0,0,66,45.87a41.44,41.44,0,0,0,5.06.37,19.17,19.17,0,0,0,.93-3.91,21.61,21.61,0,0,0-2.23-11.88Z"></path> <path class="cls-23" d="M75,28.79q5.63,5.72,4.65,12.59a17.47,17.47,0,0,1-1,3.6,22.1,22.1,0,0,0,7.44-4.4l.09-.1q-.34-9.63-9.66-12.87A7.87,7.87,0,0,1,75,28.79Z"></path> <path class="cls-24" d="M79.1,9Q77,13.24,78.23,19.52c.18.94.28,1.58.32,1.94a11.2,11.2,0,0,1,13.07-.19h0a40.27,40.27,0,0,0-5-10.18q-3.24-5,.22-8.11A11.39,11.39,0,0,0,79.1,9Z"></path> <path class="cls-25" d="M83.25,21.55a10.41,10.41,0,0,0-4.7,1.91,7.17,7.17,0,0,1-.63,2.31,13.2,13.2,0,0,1,7.82,4,12.26,12.26,0,0,1,3,7.73,22.13,22.13,0,0,0,2.69-5.76,18.11,18.11,0,0,0,.76-7.49,13.85,13.85,0,0,0-7.72-2.76A10.39,10.39,0,0,0,83.25,21.55Z"></path> <g class="cls-26"> <path class="cls-27" d="M80.62,8.42a10.28,10.28,0,0,0-1.44,3.85A16.61,16.61,0,0,0,79,16a24.24,24.24,0,0,0,.48,3.68,16.22,16.22,0,0,1,.34,2.69,7.37,7.37,0,0,1-1,4.11,7.7,7.7,0,0,1-2.62,2.7,13.41,13.41,0,0,1-3.41,1.52c-.72.2-1.46.36-2.2.49-1.29.23-3.36.4-4.67.58a13.54,13.54,0,0,0-.79,2.52c-.06.37-.2.93-.26,1.3a43.71,43.71,0,0,0,6.76-.76,19.05,19.05,0,0,0,5.51-2,9.2,9.2,0,0,0,3.55-3.37,8.94,8.94,0,0,0,.88-1.85,10.28,10.28,0,0,0,.62-3A13.07,13.07,0,0,0,81.81,21c-.26-1.15-.54-2.27-.85-3.38a16.72,16.72,0,0,1-.57-3.1c0-.31,0-.62,0-.92,0-.59,0-1.17,0-1.75A8.82,8.82,0,0,1,83.09,6c.21-.21.42-.42.64-.61A9.25,9.25,0,0,0,80.62,8.42Z"></path> </g> <path class="cls-28" d="M32.49,46.38h-.08a16.18,16.18,0,0,0-2.12.14,14,14,0,0,0-8.82,4.76,34.22,34.22,0,0,0,11-3.48A9.62,9.62,0,0,0,32.49,46.38Z"></path> <path class="cls-29" d="M25.31,44.24a8.79,8.79,0,0,0-2.8.78,21.8,21.8,0,0,0-7.27,6.63.53.53,0,0,0-.12.3h0q6.65-7.08,17.37-5.57a12.18,12.18,0,0,0-.28-2l-.34,0-.29,0c-.37-.05-.72-.09-1-.11l-.72-.07c-.74-.05-1.44-.08-2.1-.08A17.54,17.54,0,0,0,25.31,44.24Z"></path> <path class="cls-30" d="M65.45,49.19a34.52,34.52,0,0,0,10.76,4.27h0a14.32,14.32,0,0,0-10.67-5.67A11.09,11.09,0,0,0,65.45,49.19Z"></path> <path class="cls-31" d="M67.62,45.8l-1.05,0a1.46,1.46,0,0,0-.29,0h-.34a11.73,11.73,0,0,0-.41,1.9q10.75-.71,16.9,6.75a.47.47,0,0,0-.1-.3,22.52,22.52,0,0,0-6.85-7.3C74,46,71.59,45.8,68.33,45.8Z"></path> <path class="cls-32" d="M40.29,68.5a13.25,13.25,0,0,0,8.09,4.18,16.19,16.19,0,0,0,8.87-3.63Q47.76,73.38,40.29,68.5Z"></path> <path class="cls-33" d="M37.27,30.24h0c.51,3.1,1.39,4.89,2.64,5.39a8.68,8.68,0,0,1,5.75,7.66c1.34.26,2.78.49,4.3.69a20.76,20.76,0,0,0,3.85-.92,5.39,5.39,0,0,1,.71-4.5,4.84,4.84,0,0,1,3.75-1.91c1.89-.17,3.46-2.28,4.71-6.31-.22.51-1.25.95-3.08,1.31a84,84,0,0,1-10,1Z"></path> <g class="cls-26"> <path class="cls-34" d="M34.12,34.06h0A7.93,7.93,0,0,0,34,32.89a16.05,16.05,0,0,0-.61-2.64C32,30,30,29.72,28.71,29.38a19.83,19.83,0,0,1-2.15-.67,13.06,13.06,0,0,1-3.27-1.81A7.75,7.75,0,0,1,20.91,24a7.29,7.29,0,0,1-.68-4.18,15.8,15.8,0,0,1,.56-2.65,24.17,24.17,0,0,0,.8-3.62A17.3,17.3,0,0,0,21.7,9.8a10.3,10.3,0,0,0-1.12-4,9.19,9.19,0,0,0-2.82-3.33q.28.31.57.66a8.75,8.75,0,0,1,2.2,6.06c0,.57-.05,1.15-.1,1.74,0,.3-.08.61-.13.92a16.42,16.42,0,0,1-.83,3c-.4,1.08-.78,2.18-1.13,3.3a13.44,13.44,0,0,0-.63,3.64,10.39,10.39,0,0,0,.36,3,10.17,10.17,0,0,0,.72,1.92A9.4,9.4,0,0,0,22,30.48a19.3,19.3,0,0,0,5.32,2.44A42.61,42.61,0,0,0,34.12,34.06Z"></path> </g> <g class="cls-35"> <path class="cls-36" d="M10,32.56a17.62,17.62,0,0,0,4.44,5.8,22.72,22.72,0,0,0,6.85,4.14c2.61,1,6.9,1.51,11,1.72A24.58,24.58,0,0,0,33.7,40h0a33.14,33.14,0,0,1-14.2-3.24A10.06,10.06,0,0,0,23.78,41Q11.56,37,7.88,25.55A24.28,24.28,0,0,0,10,32.56Z"></path> </g> <g class="cls-35"> <path class="cls-37" d="M74.44,43.17a10.13,10.13,0,0,0,4.64-3.91,32.83,32.83,0,0,1-14.23,2.31,30.44,30.44,0,0,0,1,4.11c4.12.13,8.27,0,11-.81A22.65,22.65,0,0,0,84,41.34a17.65,17.65,0,0,0,4.92-5.4,24.53,24.53,0,0,0,2.67-6.81Q87,40.26,74.44,43.17Z"></path> </g> <path class="cls-38" d="M42,48s2.06-8.51-6.3-8.83C35.72,39.14,33.29,48.19,42,48Z"></path> <path class="cls-39" d="M41.94,47.77s-.23-6.34-5.93-8.15C36,39.62,34.39,47.19,41.94,47.77Z"></path> <path class="cls-40" d="M37.43,44l2.09-.47L38,44.94a3,3,0,0,0,3.56.64,9.09,9.09,0,0,0-3.26-4.83A3,3,0,0,0,37.43,44Z"></path> <path class="cls-41" d="M38.31,43.81l1.22-.28-.88.81a2.26,2.26,0,0,0,2.72.54,9,9,0,0,0-2.45-3.7A2.28,2.28,0,0,0,38.31,43.81Z"></path> <path class="cls-42" d="M62,39.72c-7.74,1-5.34,9.09-5.34,9.09,8.72-.22,5.84-9.14,5.84-9.14Z"></path> <path class="cls-43" d="M56.69,48.61c7.52-1,5.51-8.45,5.51-8.45C56.6,42.26,56.69,48.61,56.69,48.61Z"></path> <path class="cls-44" d="M57,46.4a3,3,0,0,0,3.51-.82L58.9,44.26l2.1.36a3,3,0,0,0-1-3.21A9,9,0,0,0,57,46.4Z"></path> <path class="cls-45" d="M57.12,45.69A2.24,2.24,0,0,0,59.8,45l-.92-.76,1.24.21a2.27,2.27,0,0,0-.75-2.59A9,9,0,0,0,57.12,45.69Z"></path> <rect class="cls-46" x="112.7" y="13.76" width="14.49" height="57.62"></rect> <path class="cls-47" d="M168.78,34.61c-2.91-3.12-6.82-4.63-11.7-4.68-8.62-.09-12.26,3.51-15.4,6.48L132,29.93V71.37h14.49V49.47A6.18,6.18,0,0,1,148.15,45a5.86,5.86,0,0,1,4.38-1.73A6,6,0,0,1,157,45a6.1,6.1,0,0,1,1.73,4.51v21.9h14.49V47.11Q173.16,39.28,168.78,34.61Z"></path> <path class="cls-47" d="M203.83,58.25a8.45,8.45,0,0,1-11.62-.09,8.78,8.78,0,0,1-2.4-6.57A8.72,8.72,0,0,1,192.25,45a8.09,8.09,0,0,1,5.81-2.35A7.93,7.93,0,0,1,203.83,45a8.92,8.92,0,0,1,2.4,6.66,8.63,8.63,0,0,1-2.4,6.57Zm17.24-44.49H206.59v20a15.13,15.13,0,0,0-10.78-3.87,18.8,18.8,0,0,0-14.53,6.23,21.57,21.57,0,0,0-5.68,15.92,20.58,20.58,0,0,0,6.21,14.71c5.05,5.42,13.93,5.75,13.93,5.75,5.47,0,10.08-.53,15.94-5.75l9.39,5.92Z"></path> <rect class="cls-46" x="226.19" y="31.81" width="14.49" height="39.56"></rect> <path class="cls-47" d="M266.4,42.78q4.56,0,7.91,4.79l10.05-6.73a19.3,19.3,0,0,0-7.2-7.93A20.3,20.3,0,0,0,266.24,30a21.82,21.82,0,0,0-15.7,6.11,20,20,0,0,0-6.39,15.08,20.05,20.05,0,0,0,6.39,15.09,21.85,21.85,0,0,0,15.7,6.1,20.3,20.3,0,0,0,10.92-2.91,19.3,19.3,0,0,0,7.2-7.93L274.15,55.1q-3.3,4.5-7.75,4.5a7.6,7.6,0,0,1-5.83-2.34,8.59,8.59,0,0,1-2.18-6.07,8.59,8.59,0,0,1,2.18-6.07A7.6,7.6,0,0,1,266.4,42.78Z"></path> <path class="cls-47" d="M312.94,31.84V54.09a6,6,0,0,1-1.72,4.42,5.91,5.91,0,0,1-4.34,1.73,5.92,5.92,0,0,1-6.15-6.15V31.84H286.24V54.55a24.6,24.6,0,0,0,.57,5.41c1.56,7.06,6.38,12.19,14.69,12.79,3.77.27,10.93.08,16.51-5.93l9.42,5.93V31.84Z"></path> <rect class="cls-46" x="226.19" y="13.76" width="14.49" height="13.55"></rect> <path class="cls-47" d="M363,36l-6.52,8.46A13.13,13.13,0,0,0,347.89,41q-2.82,0-2.82,1.53a1.38,1.38,0,0,0,.32.88,2.32,2.32,0,0,0,.85.65c.35.16.87.37,1.57.64l4,1.61a28.38,28.38,0,0,1,8.91,5.16,9.93,9.93,0,0,1,2.86,7.5,11.66,11.66,0,0,1-4.68,9.79q-4.67,3.58-12,3.59-11.44,0-17.33-7.74l6.45-8.22q5.15,5,11.12,5c2.36,0,3.54-.59,3.54-1.78,0-.7-.78-1.37-2.33-2l-4.52-1.86A26.33,26.33,0,0,1,335,50.43a10.44,10.44,0,0,1-2.86-7.66,11.26,11.26,0,0,1,4.27-9.35Q340.73,30,347.81,30,357.25,30,363,36Z"></path> </svg>